IKResults
version=1
nRows=10
nColumns=40
inDegrees=yes

Units are S.I. units (second, meters, Newtons, ...)
Angles are in degrees.

endheader
time	pelvis_tilt	pelvis_list	pelvis_rotation	pelvis_tx	pelvis_ty	pelvis_tz	hip_flexion_r	hip_adduction_r	hip_rotation_r	knee_angle_r	knee_angle_r_beta	ankle_angle_r	subtalar_angle_r	mtp_angle_r	hip_flexion_l	hip_adduction_l	hip_rotation_l	knee_angle_l	knee_angle_l_beta	ankle_angle_l	subtalar_angle_l	mtp_angle_l	lumbar_extension	lumbar_bending	lumbar_rotation	arm_flex_r	arm_add_r	arm_rot_r	elbow_flex_r	pro_sup_r	wrist_flex_r	wrist_dev_r	arm_flex_l	arm_add_l	arm_rot_l	elbow_flex_l	pro_sup_l	wrist_flex_l	wrist_dev_l
      0.63000000	     17.12887359	      0.09760179	     -1.36272138	     -0.08450651	      0.94715686	     -1.02212183	     -2.81447577	     -0.78568617	     -3.41074960	    -53.54634789	     -0.93456007	      4.91528387	    -16.62299705	     12.12138410	    -14.34058422	     -2.18881671	      8.43713426	    -18.55688217	     -0.32387869	     11.69779727	      3.31150165	     -3.27279681	    -24.62199469	     -2.38540818	     -2.95073295	     -9.51337856	    -11.39064046	      2.81837183	     28.87495789	     89.95437384	      0.00000000	      0.00000000	     -1.85874884	     11.31908519	      7.33744375	     20.37800415	     89.95437384	      0.00000000	      0.00000000
      0.64000000	     16.77778123	      0.07623044	     -1.17199545	     -0.07125185	      0.94645359	     -1.02316461	     -0.90150930	     -0.99275216	     -4.27520334	    -52.46052514	     -0.91560889	      5.80184872	    -16.43018216	     11.83629985	    -14.93298306	     -2.12472441	      8.83131173	    -18.40525500	     -0.32123230	     12.02994006	      3.16019560	     -3.23122658	    -24.25720717	     -2.20841862	     -3.22282355	    -10.14367103	    -11.36584885	      2.90357996	     28.08140399	     89.95437384	      0.00000000	      0.00000000	     -0.67279068	     11.48096979	      7.21488217	     21.36366329	     89.95437384	      0.00000000	      0.00000000
      0.65000000	     17.24817133	     -0.41390785	     -0.28942523	     -0.05761858	      0.94706529	     -1.02412647	     -0.53537273	     -0.31023826	     -5.22337513	    -50.28077088	     -0.87756500	      6.75080038	    -16.47580593	     12.62617610	    -16.72268844	     -1.40872123	      7.99815651	    -17.63380550	     -0.30776797	     12.34147524	      2.61526277	     -3.69261354	    -24.77954617	     -1.40036504	     -3.99924318	    -10.45513856	    -11.06789991	      2.46790710	     26.85150472	     89.95437384	      0.00000000	      0.00000000	      0.25977294	     11.87588290	      6.70114357	     22.93622762	     89.95437384	      0.00000000	      0.00000000
      0.66000000	     17.13391520	     -0.66722728	      0.25384947	     -0.04440363	      0.94637864	     -1.02501358	      0.76604091	     -0.08783060	     -6.14552886	    -48.49306422	     -0.84636364	      7.37457663	    -16.25965046	     12.77699227	    -17.55863937	     -1.02568987	      7.54853632	    -17.48945858	     -0.30524864	     12.79089938	      2.57376337	     -3.88894300	    -24.68568795	     -0.90801570	     -4.54169087	    -10.82970012	    -10.91779034	      2.36611709	     25.77562981	     89.95437384	      0.00000000	      0.00000000	      1.23899114	     12.14329785	      6.67343583	     24.40357730	     89.95437384	      0.00000000	      0.00000000
      0.67000000	     17.02517924	     -0.82486178	      0.73829121	     -0.03118598	      0.94549393	     -1.02576675	      2.00702786	      0.00621661	     -7.00852192	    -46.59305593	     -0.81320223	      7.90546902	    -15.85898757	     12.85961485	    -18.41088055	     -0.71011522	      7.39997278	    -17.31711749	     -0.30224072	     13.18318007	      2.38718671	     -4.15248927	    -24.58469126	     -0.53998746	     -5.02205334	    -11.25098747	    -10.72592680	      2.10110589	     24.80404328	     89.95437384	      0.00000000	      0.00000000	      2.30719379	     12.38692054	      6.77421043	     25.73978195	     89.95437384	      0.00000000	      0.00000000
      0.68000000	     16.83622062	     -1.04012709	      1.17669027	     -0.01807574	      0.94425098	     -1.02637667	      3.28718370	      0.16616118	     -7.76876693	    -44.58734008	     -0.77819589	      8.37444711	    -15.23386537	     12.66188786	    -19.04906153	     -0.36423551	      7.12675140	    -17.39512671	     -0.30360223	     13.78277041	      2.43174837	     -4.26754588	    -24.41098394	     -0.13256127	     -5.42071426	    -11.64322178	    -10.59688882	      1.95328981	     23.84491809	     89.95437384	      0.00000000	      0.00000000	      3.23433523	     12.65269597	      6.83027409	     27.37667680	     89.95437384	      0.00000000	      0.00000000
      0.69000000	     16.64190035	     -1.25829456	      1.51370008	     -0.00502848	      0.94283464	     -1.02666815	      4.50309529	      0.36761167	     -8.37019588	    -42.42827719	     -0.74051313	      8.61640586	    -14.47681390	     12.38399492	    -19.69301127	     -0.04376843	      6.85273751	    -17.42831328	     -0.30418145	     14.45673788	      2.59486476	     -4.34107779	    -24.23152012	      0.22822160	     -5.73629949	    -12.05362439	    -10.48835216	      1.83434462	     23.08439326	     89.95437384	      0.00000000	      0.00000000	      4.16435424	     12.92480804	      6.95819176	     28.98979576	     89.95437384	      0.00000000	      0.00000000
      0.70000000	     15.99853217	     -1.02164201	      1.43310724	      0.00772942	      0.94033714	     -1.02696973	      6.47149063	     -0.14923061	     -9.02854422	    -40.71251796	     -0.71056749	      8.63942910	    -13.61927340	     11.96719126	    -19.73212828	     -0.33484283	      7.15735337	    -17.69701448	     -0.30887117	     14.61337893	      2.51804977	     -4.25271479	    -23.59980889	      0.01799537	     -5.66922570	    -12.74126915	    -10.47740804	      1.88602459	     22.72567602	     89.95437384	      0.00000000	      0.00000000	      5.27495720	     13.09185116	      7.01348845	     30.37185040	     89.95437384	      0.00000000	      0.00000000
      0.71000000	     16.07863963	     -1.40615233	      2.09224904	      0.02095003	      0.93908330	     -1.02735904	      6.96973016	      0.27115135	     -9.88325795	    -37.82316366	     -0.66013874	      8.33987479	    -12.32223599	     11.55157643	    -20.77119628	      0.28425826	      6.67207595	    -17.52725477	     -0.30590830	     15.46228962	      2.69333305	     -4.42745358	    -23.71170445	      0.65602249	     -6.29383684	    -12.84596950	    -10.26848580	      1.58522965	     21.59995308	     89.95437384	      0.00000000	      0.00000000	      5.95409484	     13.43980333	      7.11738813	     32.36727920	     89.95437384	      0.00000000	      0.00000000
      0.72000000	     15.38536717	     -1.12038792	      1.88170531	      0.03384900	      0.93614883	     -1.02731652	      8.88409498	     -0.27388163	    -10.54559328	    -35.99086053	     -0.62815902	      8.03853816	    -11.43731327	     11.17125035	    -20.79316632	     -0.10612904	      6.92048855	    -17.80223237	     -0.31070757	     15.55330331	      2.61186458	     -4.34175576	    -23.03566407	      0.34659582	     -6.09182987	    -13.51930325	    -10.27660128	      1.65879529	     21.38419574	     89.95437384	      0.00000000	      0.00000000	      7.01507656	     13.58114330	      7.18999474	     33.78120989	     89.95437384	      0.00000000	      0.00000000
